<svg id="visual" viewBox="0 0 1400 600" width="1400" height="600" xmlns="http://www.w3.org/2000/svg" xmlns:xlink="http://www.w3.org/1999/xlink" version="1.1"><rect x="0" y="0" width="1400" height="600" fill="#c3a4f4"></rect><path d="M0 436L33.3 434.2C66.7 432.3 133.3 428.7 200 438.7C266.7 448.7 333.3 472.3 400 485.7C466.7 499 533.3 502 600 495.3C666.7 488.7 733.3 472.3 800 455.8C866.7 439.3 933.3 422.7 1000 414.3C1066.7 406 1133.3 406 1200 413.8C1266.7 421.7 1333.3 437.3 1366.7 445.2L1400 453L1400 601L1366.7 601C1333.3 601 1266.7 601 1200 601C1133.3 601 1066.7 601 1000 601C933.3 601 866.7 601 800 601C733.3 601 666.7 601 600 601C533.3 601 466.7 601 400 601C333.3 601 266.7 601 200 601C133.3 601 66.7 601 33.3 601L0 601Z" fill="#ffffff" stroke-linecap="round" stroke-linejoin="miter"></path></svg>